<mxfile host="app.diagrams.net" modified="2023-01-29T08:54:50.506Z" agent="5.0 (Windows NT 6.1; Win64; x64) AppleWebKit/537.36 (KHTML, like Gecko) Chrome/100.0.4896.127 Safari/537.36" etag="hmY8VT800y7XSnYBomEX" version="20.8.13" type="github">
  <diagram name="第 1 页" id="FiF0fwUgYlSaWCu7eqro">
    <mxGraphModel dx="1434" dy="1971" grid="1" gridSize="10" guides="1" tooltips="1" connect="1" arrows="1" fold="1" page="1" pageScale="1" pageWidth="827" pageHeight="1169" math="0" shadow="0">
      <root>
        <mxCell id="0" />
        <mxCell id="1" parent="0" />
        <mxCell id="hqldBkLt7CdS2uDbmeUH-1" value="模型适当优化 - 修行 - 修心" style="rounded=1;whiteSpace=wrap;html=1;" vertex="1" parent="1">
          <mxGeometry x="360" y="670" width="120" height="60" as="geometry" />
        </mxCell>
        <mxCell id="hqldBkLt7CdS2uDbmeUH-2" value="指标背后的思考，思考这种行为的背后人思考" style="rounded=1;whiteSpace=wrap;html=1;" vertex="1" parent="1">
          <mxGeometry x="360" y="540" width="120" height="60" as="geometry" />
        </mxCell>
        <mxCell id="hqldBkLt7CdS2uDbmeUH-3" value="形态" style="rounded=1;whiteSpace=wrap;html=1;" vertex="1" parent="1">
          <mxGeometry x="360" y="210" width="120" height="60" as="geometry" />
        </mxCell>
        <mxCell id="hqldBkLt7CdS2uDbmeUH-4" value="均线" style="ellipse;whiteSpace=wrap;html=1;aspect=fixed;" vertex="1" parent="1">
          <mxGeometry x="300" y="160" width="70" height="70" as="geometry" />
        </mxCell>
        <mxCell id="hqldBkLt7CdS2uDbmeUH-5" value="聚合形态" style="rounded=1;whiteSpace=wrap;html=1;" vertex="1" parent="1">
          <mxGeometry x="360" y="40" width="120" height="60" as="geometry" />
        </mxCell>
        <mxCell id="hqldBkLt7CdS2uDbmeUH-6" value="红三兵" style="ellipse;whiteSpace=wrap;html=1;aspect=fixed;" vertex="1" parent="1">
          <mxGeometry x="310" width="70" height="70" as="geometry" />
        </mxCell>
        <mxCell id="hqldBkLt7CdS2uDbmeUH-7" value="起名之心" style="ellipse;whiteSpace=wrap;html=1;aspect=fixed;" vertex="1" parent="1">
          <mxGeometry x="379" y="-20" width="70" height="70" as="geometry" />
        </mxCell>
        <mxCell id="hqldBkLt7CdS2uDbmeUH-8" value="..." style="ellipse;whiteSpace=wrap;html=1;aspect=fixed;" vertex="1" parent="1">
          <mxGeometry x="449" y="-10" width="70" height="70" as="geometry" />
        </mxCell>
        <mxCell id="hqldBkLt7CdS2uDbmeUH-9" value="量" style="ellipse;whiteSpace=wrap;html=1;aspect=fixed;" vertex="1" parent="1">
          <mxGeometry x="360" y="150" width="70" height="70" as="geometry" />
        </mxCell>
        <mxCell id="hqldBkLt7CdS2uDbmeUH-10" value="背离" style="ellipse;whiteSpace=wrap;html=1;aspect=fixed;" vertex="1" parent="1">
          <mxGeometry x="270" y="30" width="70" height="70" as="geometry" />
        </mxCell>
        <mxCell id="hqldBkLt7CdS2uDbmeUH-11" value="筹码分布" style="ellipse;whiteSpace=wrap;html=1;aspect=fixed;" vertex="1" parent="1">
          <mxGeometry x="420" y="150" width="70" height="70" as="geometry" />
        </mxCell>
        <mxCell id="hqldBkLt7CdS2uDbmeUH-12" value="..." style="ellipse;whiteSpace=wrap;html=1;aspect=fixed;" vertex="1" parent="1">
          <mxGeometry x="480" y="150" width="70" height="70" as="geometry" />
        </mxCell>
        <mxCell id="hqldBkLt7CdS2uDbmeUH-13" value="情绪周期" style="rounded=1;whiteSpace=wrap;html=1;" vertex="1" parent="1">
          <mxGeometry x="360" y="-190" width="120" height="60" as="geometry" />
        </mxCell>
        <mxCell id="hqldBkLt7CdS2uDbmeUH-14" value="" style="endArrow=none;html=1;rounded=0;" edge="1" parent="1">
          <mxGeometry width="50" height="50" relative="1" as="geometry">
            <mxPoint x="50" y="-80" as="sourcePoint" />
            <mxPoint x="740" y="-80" as="targetPoint" />
          </mxGeometry>
        </mxCell>
        <mxCell id="hqldBkLt7CdS2uDbmeUH-15" value="技术 - 短线、中" style="text;html=1;strokeColor=none;fillColor=none;align=center;verticalAlign=middle;whiteSpace=wrap;rounded=0;" vertex="1" parent="1">
          <mxGeometry x="690" y="-60" width="90" height="30" as="geometry" />
        </mxCell>
        <mxCell id="hqldBkLt7CdS2uDbmeUH-16" value="情绪 - 超短" style="text;html=1;strokeColor=none;fillColor=none;align=center;verticalAlign=middle;whiteSpace=wrap;rounded=0;" vertex="1" parent="1">
          <mxGeometry x="690" y="-130" width="90" height="30" as="geometry" />
        </mxCell>
        <mxCell id="hqldBkLt7CdS2uDbmeUH-17" value="" style="endArrow=none;html=1;rounded=0;" edge="1" parent="1">
          <mxGeometry width="50" height="50" relative="1" as="geometry">
            <mxPoint x="75" y="300" as="sourcePoint" />
            <mxPoint x="765" y="300" as="targetPoint" />
          </mxGeometry>
        </mxCell>
        <mxCell id="hqldBkLt7CdS2uDbmeUH-18" value="" style="endArrow=none;html=1;rounded=0;" edge="1" parent="1">
          <mxGeometry width="50" height="50" relative="1" as="geometry">
            <mxPoint x="75" y="490" as="sourcePoint" />
            <mxPoint x="765" y="490" as="targetPoint" />
          </mxGeometry>
        </mxCell>
        <mxCell id="hqldBkLt7CdS2uDbmeUH-19" value="价值 = 长线" style="text;html=1;strokeColor=none;fillColor=none;align=center;verticalAlign=middle;whiteSpace=wrap;rounded=0;" vertex="1" parent="1">
          <mxGeometry x="690" y="310" width="90" height="30" as="geometry" />
        </mxCell>
        <mxCell id="hqldBkLt7CdS2uDbmeUH-20" value="估值" style="rounded=1;whiteSpace=wrap;html=1;" vertex="1" parent="1">
          <mxGeometry x="360" y="370" width="120" height="60" as="geometry" />
        </mxCell>
        <mxCell id="hqldBkLt7CdS2uDbmeUH-21" value="换手" style="ellipse;whiteSpace=wrap;html=1;aspect=fixed;" vertex="1" parent="1">
          <mxGeometry x="290" y="200" width="70" height="70" as="geometry" />
        </mxCell>
        <mxCell id="hqldBkLt7CdS2uDbmeUH-22" value="问题：无法关注这么多领域、1.自动化、2.别人基础上 3.多人讨论、分别、4、老龙头跟踪、新龙头&amp;nbsp; 5.取舍、&amp;nbsp; &amp;nbsp;6.电脑快速&lt;br&gt;2.盘中无法快速关注到， 1.复盘计划周密、2.快速联想&amp;nbsp; 3.看哪些指标&amp;nbsp; &amp;nbsp;4.上班期间没时间&amp;nbsp;&lt;br&gt;3.关注的无法决策， 1.交易确定性&amp;nbsp; &amp;nbsp;2.认知" style="rounded=1;whiteSpace=wrap;html=1;" vertex="1" parent="1">
          <mxGeometry x="290" y="770" width="350" height="140" as="geometry" />
        </mxCell>
      </root>
    </mxGraphModel>
  </diagram>
</mxfile>
